<svg xmlns="http://www.w3.org/2000/svg" viewBox="610 230 710 570" fill="none" preserveAspectRatio="xMidYMid meet">
  <path fill="rgb(147,191,222)" d="M963.438 425.944C1002.63 368.791 1088.23 348.149 1149.63 323.522C1201.47 302.732 1248.7 279.101 1293.59 245.5C1297.06 242.938 1301.02 240.233 1304.68 237.929C1310.73 278.44 1310.39 313.963 1290.68 350.753C1286.59 358.383 1275.62 370.812 1274.25 377.708C1268.42 407.07 1265.19 433.423 1247.24 458.744C1237.74 472.14 1223.4 480.685 1212.88 492.821C1205.9 504.445 1203.17 521.303 1194.35 535.729C1162.31 588.094 1107.35 602.477 1051.37 613.183C930.143 637.658 791.191 652.517 745.571 787.876L619.211 787.804C649.846 705.481 710.212 659.707 791.414 632.248C823.297 623.402 864.515 612.339 887.473 585.66C927.711 538.901 926.685 480.083 963.438 425.944Z"/>
  <path fill="rgb(255,255,255)" d="M976.607 453.934C984.476 443.752 987.859 437.898 997.375 428.49C1048.54 377.902 1125.53 366.854 1188.98 337.693C1210.29 327.904 1229.88 317.782 1250.03 305.81C1259.73 300.048 1272.46 290.321 1281.53 285.448C1274.79 372.111 1200 394.275 1128.2 415.768C1097.15 425.066 1062.66 433.692 1042.03 460.69C1037.46 466.663 1034.38 473.512 1030.26 479.725C1051.07 472.131 1069.07 462.338 1090.97 455.594C1129.4 443.76 1168.39 433.513 1205.91 419.015C1216.41 414.927 1232.45 405.924 1242.94 400.299C1230.48 436.993 1220.68 457.185 1183.83 476.185C1126.26 505.872 1061.15 485.987 1021.38 545.109C1040.27 540.318 1058.83 533.633 1078.71 529.135C1101.46 523.989 1160.77 516.041 1178.67 507.129C1160.07 543.953 1138.9 561.228 1098.85 574.481C1087.14 578.301 1075.19 581.335 1063.07 583.563C1057.36 584.648 1045.48 586.413 1040.36 587.924C992.602 596.931 938.856 606.457 891.868 618.131C949.97 572.825 946.859 517.747 976.607 453.934Z"/>
  <path fill="rgb(34,58,88)" d="M963.438 425.944C966.908 433.477 972.636 447.806 976.607 453.934C946.859 517.747 949.97 572.825 891.868 618.131C938.856 606.457 992.602 596.931 1040.36 587.924C1042.11 595.46 1047.59 606.361 1051.37 613.183C930.143 637.658 791.191 652.517 745.571 787.876L619.211 787.804C649.846 705.481 710.212 659.707 791.414 632.248C823.297 623.402 864.515 612.339 887.473 585.66C927.711 538.901 926.685 480.083 963.438 425.944Z"/>
  <path fill="rgb(34,58,88)" d="M877.648 260.174L878.737 259.406C893.817 290.1 911.152 320.839 925.781 352.016C933.656 368.801 945.044 386.991 951.169 404.277C926.962 435.864 916.486 458.271 906.57 497.461C903.827 508.305 900.225 524.388 897.024 534.786C892.933 525.744 881.923 498.545 877.234 492.065C862.806 522.905 845.703 553.165 831.548 584.233C829.268 589.238 826.541 594.664 823.85 599.448C773.339 611.819 727.726 626.272 686.992 660.627C685.238 659.14 683.897 657.887 682.247 656.285C700.566 615.366 724.645 568.393 744.715 528.114L817.998 379.569L857.117 300.179C861.094 292.074 873.113 266.323 877.648 260.174Z"/>
  <path fill="rgb(147,191,222)" d="M877.648 260.174L878.737 259.406C893.817 290.1 911.152 320.839 925.781 352.016C933.656 368.801 945.044 386.991 951.169 404.277C926.962 435.864 916.486 458.271 906.57 497.461C903.827 508.305 900.225 524.388 897.024 534.786C892.933 525.744 881.923 498.545 877.234 492.065C878.295 486.492 877.633 445.287 877.633 436.934L877.541 304.837C877.49 298.911 878.629 262.679 877.648 260.174Z"/>
  <path fill="rgb(147,191,222)" d="M1008.86 645.676C1023.4 642.666 1049.99 636.217 1063.79 634.39C1071.14 646.784 1080.69 667.404 1087.32 681.031C1095.44 697.702 1110.17 724.419 1115.76 741.072C1124.85 754.271 1133.18 773.197 1140.2 787.941L1014.21 788.057C1009.7 776.857 1001.76 762.69 996.39 751.436C981.417 720.079 965.191 689.452 950.11 658.116C967.59 654.673 992.045 650.466 1008.86 645.676Z"/>
  <path fill="rgb(232,180,64)" d="M1008.86 645.676C1023.4 642.666 1049.99 636.217 1063.79 634.39C1071.14 646.784 1080.69 667.404 1087.32 681.031C1095.44 697.702 1110.17 724.419 1115.76 741.072C1110.4 740.824 1102.52 736.276 1097.51 734.013C1065.49 719.543 1020.46 679.702 1008.86 645.676Z"/>
</svg>
